<?xml version="1.0" encoding="UTF-8"?>
<svg xmlns="http://www.w3.org/2000/svg" width="143" height="38" viewBox="0 0 143 38" fill="none">
  <path d="M76.7232 30.7788C75.9325 30.7788 75.2088 30.4509 74.6861 29.9289C74.1635 29.4068 73.8351 28.6841 73.8351 27.8943V10.1124C73.8351 9.32265 74.1635 8.59986 74.6861 8.07784C75.2088 7.55583 75.9325 7.2279 76.7232 7.2279H84.5496C86.2851 7.2279 87.8732 6.55865 89.0525 5.46777L94.5135 0.00669393H76.7164C73.9289 0.00669393 71.4028 1.14442 69.5668 2.97147C67.7375 4.79852 66.5984 7.32829 66.5984 10.1124V27.8943C66.5984 30.6784 67.7375 33.2015 69.5668 35.0352C71.3961 36.8623 73.9289 38 76.7164 38H84.5429C86.2784 38 87.8664 37.3307 89.0458 36.2399C93.743 31.5484 94.3862 30.906 94.5068 30.7788H76.7097M21.5964 37.9933C24.3839 37.9933 26.9101 36.8556 28.746 35.0285C30.5753 33.2015 31.7145 30.6717 31.7145 27.8876V25.4917C31.7145 23.0222 30.8166 20.7534 29.3357 19C30.8166 17.2399 31.7145 14.9711 31.7145 12.5083V10.1124C31.7145 7.32829 30.5753 4.80522 28.746 2.97147C26.9168 1.14442 24.3839 0.00669393 21.5964 0.00669393H0V37.9933H21.5964ZM17.1806 15.3927H7.22337V7.22121H21.5897C22.3804 7.22121 23.1041 7.54914 23.6267 8.07115C24.1494 8.59317 24.4777 9.31596 24.4777 10.1057V12.5016C24.4777 13.2913 24.1494 14.0141 23.6267 14.5361C23.1041 15.0581 22.3804 15.3861 21.5897 15.3861H17.1739L17.1806 15.3927ZM7.22337 22.6073H21.5897C22.3804 22.6073 23.1041 22.9352 23.6267 23.4572C24.1494 23.9792 24.4777 24.702 24.4777 25.4917V27.8876C24.4777 28.6774 24.1494 29.4001 23.6267 29.9222C23.1041 30.4442 22.3804 30.7721 21.5897 30.7721H7.22337V22.6006V22.6073ZM105.63 0.281084L100.229 5.67524C99.0767 6.88658 98.467 8.42586 98.4066 9.97852V37.9866L103.807 32.5925C104.96 31.3811 105.57 29.8419 105.63 28.2892V0.281084ZM120.988 7.22121C120.197 7.22121 119.474 7.54914 118.951 8.07115C118.428 8.59317 118.1 9.31596 118.1 10.1057V12.5016C118.1 13.2913 118.428 14.0141 118.951 14.5361C119.474 15.0581 120.197 15.3861 120.988 15.3861H132.466C135.254 15.3861 137.78 16.5238 139.616 18.3508C141.445 20.1779 142.584 22.7076 142.584 25.4917V27.8876C142.584 30.6717 141.445 33.1948 139.616 35.0285C137.787 36.8556 135.254 37.9933 132.466 37.9933H110.87C110.997 37.8662 113.905 34.9616 116.331 32.5322C117.517 31.4414 119.098 30.7721 120.834 30.7721H132.46C133.25 30.7721 133.974 30.4442 134.497 29.9222C135.019 29.4001 135.348 28.6774 135.348 27.8876V25.4917C135.348 23.9123 134.041 22.6073 132.46 22.6073H120.981C118.194 22.6073 115.668 21.4695 113.838 19.6425C112.009 17.8154 110.87 15.2857 110.87 12.5016V10.1057C110.87 7.32159 112.009 4.79852 113.838 2.96478C115.668 1.13772 118.201 0 120.988 0H142.584L137.117 5.46108C135.931 6.55196 134.349 7.22121 132.614 7.22121H120.988Z" fill="#2D2D2D"></path>
  <path d="M48.9421 30.7785H62.511C62.3837 30.9056 60.0854 33.2011 57.0433 36.2395C55.8572 37.3304 54.2759 37.9997 52.5404 37.9997H35.3665C35.4938 37.8725 37.5442 35.8246 39.0451 34.3255C39.1188 34.2586 40.9817 32.4047 41.0621 32.3378C42.2213 31.3674 43.7088 30.7785 45.3371 30.7785H48.9354H48.9421ZM62.511 0.00634766C62.3837 0.133505 60.474 2.04086 57.0433 5.46742C55.8572 6.5583 54.2759 7.22755 52.5404 7.22755H35.3665C35.4938 7.1004 37.5442 5.05249 39.0451 3.55337C39.1188 3.48644 40.9817 1.63263 41.0621 1.5657C42.2213 0.595289 43.7088 0.00634766 45.3371 0.00634766H62.511ZM48.9421 15.3924H62.511C62.3837 15.5196 53.1837 24.7084 57.0433 20.8535C55.8572 21.9444 54.2759 22.6136 52.5404 22.6136H35.3665C35.4938 22.4865 37.5442 20.4385 39.0451 18.9394C39.1188 18.8725 40.9817 17.0187 41.0621 16.9518C42.2213 15.9813 43.7088 15.3924 45.3371 15.3924H48.9354H48.9421Z" fill="#BE0000"></path>
</svg>
